<svg fill="#FACDD5" id="Capa_1" data-name="Capa 1" xmlns="http://www.w3.org/2000/svg" viewBox="0 0 288.41 304.16"><title>logo</title><path d="M216.7,452.11a26.67,26.67,0,0,0,11.84-4.46A44.87,44.87,0,0,0,239,438.37c1.89-2.37,3.8-4.74,5.85-7,4.66-5.12,7.73-11.25,11.18-17.14,6.34-10.85,11.63-22.25,17.09-33.55l1.69-3.45a2.44,2.44,0,0,0,.1-.51c-2-.21-4-.47-6.07-.63-10.76-.82-21.5-.76-32.14,1.39-6.87,1.4-13.49,3.5-19.1,7.92-4.2,3.31-6.87,7.47-6.66,13a17.54,17.54,0,0,0,2.52,8.18c1.16,1.95,2.58,3.75,3.85,5.64a1.56,1.56,0,0,0,1.94.66,11.48,11.48,0,0,1,10.09,2.1c5.23,3.93,2.73,9.28-.64,11.53a6.66,6.66,0,0,1-5.58.54,30.16,30.16,0,0,1-16-11c-9.6-12.62-3.87-28.9,5.23-35.86a54.41,54.41,0,0,1,24.79-10.56,94.43,94.43,0,0,1,28.92.05c3.4.49,6.79,1.13,10.17,1.76.82.15,1.21,0,1.49-.84,2.57-7.53,5.22-15,7.75-22.57,2-5.91,3.94-11.83,5.71-17.81,1-3.32,1.59-6.76,2.36-10.15a6.45,6.45,0,0,1,.47-1.59c-.22,18.85-5.33,36.64-11.72,54.3,1.72.47,3.43.85,5.08,1.4,11.8,3.91,23.84,7.15,35.09,12.58,3.34,1.61,6.57,3.46,10,5.12-.31-.36-.6-.74-.92-1.1-2.17-2.51-4.68-4.8-6.44-7.57a175.83,175.83,0,0,1-8.74-15.41,124,124,0,0,1-11.42-35,118.89,118.89,0,0,1-1.29-30.49A102.94,102.94,0,0,1,305.3,292c1.9-9.94,3.86-19.86,5.8-29.78.06-.32.15-.62.32-1.3.33.9.59,1.48.76,2.08,1.72,6.28,3.35,12.59,5.17,18.84,1.43,4.91,3.18,9.73,4.63,14.64,2.6,8.77,5,17.62,7.64,26.37S335,340.05,338,348.54c3.63,10.42,7.55,20.73,11.31,31.11a298.55,298.55,0,0,0,23,49.41c5.09,8.71,10.67,17.11,17.85,24.3,1.63,1.63,3.43,3.1,5.33,4.8-.79-.19-1.41-.3-2-.48a46.23,46.23,0,0,0-18.63-1.7,21.65,21.65,0,0,0-4.53,1.08c-2.72.92-5.36,2.1-8.1,3-6.84,2.15-13,.9-17.46-4.8a5.93,5.93,0,0,1-1.06-2.2,5.44,5.44,0,0,1,.66.28c4.12,2.38,8.18,2.1,12.15-.33a15.69,15.69,0,0,0,7.66-12.25c.47-4.19.7-8.39-.88-12.43a38.51,38.51,0,0,0-7-11.26c-.74-.84-1.55-1.63-2.24-2.51-6-7.67-13.93-13-22.13-18a148.26,148.26,0,0,0-26.13-12.83,137.54,137.54,0,0,0-24.66-6.08,1.28,1.28,0,0,0-1,.65c-2.09,4.66-4,9.4-6.22,14-3.32,7-6.84,13.91-10.23,20.89-2,4.17-4.23,8.29-5.82,12.62a19.57,19.57,0,0,0,.52,15.87c2.15,4.4,6.11,6.17,10.47,7.51q5.49,1.69,10.9,3.64a7.45,7.45,0,0,1,2.65,1.88c-1.5-.21-3-.45-4.49-.65-6.06-.77-12,.41-17.85,1.58a108.72,108.72,0,0,1-18.75,2.49,53.2,53.2,0,0,1-19.15-3.29c-1.57-.56-3.06-1.33-4.58-2A5.1,5.1,0,0,1,216.7,452.11Z" transform="translate(-165.44 -237.67)"/><path d="M431.92,443c2.84-.8,5.71-1.79,8.65-2.38a13.4,13.4,0,0,1,10,1.76,6.57,6.57,0,0,1,3.09,7.21c-.75,3.92-3,6.91-5.81,9.58-4.82,4.64-10.61,7.78-16.61,10.55-9.24,4.27-19.11,6.49-28.93,8.86a1.46,1.46,0,0,0-1.33,1.36,20,20,0,0,0-.08,7.74c1.21,5.33,4.82,8.33,9.8,9.85,9.81,3,19.48-3.21,23.21-8.71a14.62,14.62,0,0,0,1.45-3.39c.9-2.56-1.28-5.29-3.62-5.62a4.46,4.46,0,0,0-5.06,4.48c0,.2,0,.4,0,.6,0,.75-.34,1.25-1.13,1.25a1.18,1.18,0,0,1-1.27-1.28,7.64,7.64,0,0,1,3.89-7.22c2.48-1.55,5.15-1.87,7.67-.1a7.71,7.71,0,0,1,3.22,7.77,15.53,15.53,0,0,1-4.36,8.64c-6.86,7.39-15.24,10-25,7.44-8.49-2.22-13.5-10-12.33-18.72.12-.91.23-1.82.38-2.94-1.24.19-2.41.35-3.56.56-8.2,1.52-16.19,3.69-23.62,7.6a20.45,20.45,0,0,0-9.27,9.07,16.45,16.45,0,0,0-1,12.58,11.45,11.45,0,0,1,.4,1.5c.11.72,0,1.52-.84,1.59a1.78,1.78,0,0,1-1.5-.73,31.37,31.37,0,0,1-1.67-6c-.95-6.77,1.76-12.13,6.73-16.57,5.86-5.22,12.84-8.34,20.17-10.7,5-1.62,10.14-2.88,15.2-4.34a1.92,1.92,0,0,0,1.16-.81c3.2-6.84,8.08-12.38,13.66-17.29,3.71-3.27,7.74-6.18,11.61-9.28a4.85,4.85,0,0,0,1.09-1.37A137.24,137.24,0,1,0,173.44,344.78a134.1,134.1,0,0,0-4.08,40.16A136.71,136.71,0,0,0,183.17,439c1.17,2.41,2.5,4.73,3.8,7.07a2.09,2.09,0,0,0,.92.85c7.47,3,13.88,7.73,20,12.87,5.22,4.41,9.9,9.31,13.24,15.36a1.83,1.83,0,0,0,1.2.76,128.87,128.87,0,0,1,22.16,5.58c6.3,2.25,12.22,5.2,16.88,10.17,5,5.33,5.84,11.59,4,18.41a3.3,3.3,0,0,1-.67,1.38,1.63,1.63,0,0,1-1.28.53,1.55,1.55,0,0,1-.9-1.07,4.71,4.71,0,0,1,.22-1.76c1.42-6.4.05-12-4.72-16.68-3.08-3-6.87-4.72-10.79-6.26a79.27,79.27,0,0,0-19.8-4.53c-.59-.07-1.19-.17-1.78-.23s-1.18-.1-1.9-.16c.21,1.1.42,2.09.59,3.09a16.79,16.79,0,0,1-10.16,18.8,24.37,24.37,0,0,1-27.81-7.05c-2.24-2.75-3.95-5.73-3.69-9.47a7.13,7.13,0,0,1,6.14-6.8c4.29-.52,8.86,3.64,8.74,8,0,.8-.36,1.34-1.19,1.37a1.09,1.09,0,0,1-1.22-1.17,7.79,7.79,0,0,0-.17-1.06,4.34,4.34,0,0,0-5.19-3.74,4.5,4.5,0,0,0-3.34,5.81,11.76,11.76,0,0,0,4.29,6.06c5.83,4.65,12.3,7,19.76,5,5.42-1.46,9.34-4.7,10.46-10.51a17.41,17.41,0,0,0-.63-8.41c-.09-.32-.64-.64-1-.72-5.56-1.14-11.15-2.09-16.67-3.39-9.82-2.31-19.25-5.64-27.57-11.54-3.69-2.61-6.94-5.67-8.51-10.1s0-7.91,4.35-9.74a16,16,0,0,1,9.87-.85c.42.09.85.16,1.4.26-16.49-31.9-21-65.28-12.45-100.06s28-62.49,57.48-82.77a140.25,140.25,0,0,1,166.19,5.5c26.4,20.88,43.59,47.82,50.79,80.75S447,413,431.92,443Zm-28.78,30.43c4.11-1.06,7.91-2,11.67-3,9.55-2.58,18.64-6.16,26.57-12.25,2.89-2.22,5.71-4.54,7.5-7.81,1.45-2.62.92-5-1.56-6.36a9.23,9.23,0,0,0-3.6-1.12c-3.77-.33-7.16,1.1-10.41,2.73a75.68,75.68,0,0,0-23.81,18.24A43.9,43.9,0,0,0,403.14,473.38Zm-185.56,1.76.33-.28c-1.71-2.29-3.29-4.69-5.16-6.84a70.49,70.49,0,0,0-23-17.17,62.48,62.48,0,0,0-8.69-3.32,11.11,11.11,0,0,0-7.42,0c-3.54,1.37-4.63,4.3-2.56,7.45a18.53,18.53,0,0,0,3.13,3.6,53.72,53.72,0,0,0,13.94,8.74C197.55,471.55,207.55,473.41,217.58,475.14Z" transform="translate(-165.44 -237.67)"/><path d="M201.85,538.66c-.39.91-.72,1.62-1.26,2.87-1.72-.15-.77,0-2.1-.22.17-.46.3-.83.45-1.19q3.72-8.57,7.46-17.13a5,5,0,0,1,.75-1,4.48,4.48,0,0,1,.86,1q3.77,8.55,7.47,17.13c.16.36.26.73.39,1.1a10.4,10.4,0,0,1-2.12.6c-.38-1.14-.6-1.88-1.09-3.24m-5.46-12.86c-1.57,3.8-3,7.39-4.56,11h9.13Z" transform="translate(-165.44 -237.67)"/><path d="M391.51,541.34a8.07,8.07,0,0,1-1.7,0c0-1.28,0-1.38-.08-2.25a6.55,6.55,0,0,1-9.54.81,7.1,7.1,0,0,1-.31-9.49c2.48-2.78,6.88-3,9.79.34v-9.18h1.84ZM380.17,535a4.7,4.7,0,0,0,4.75,4.83,4.79,4.79,0,0,0,4.81-4.68,4.86,4.86,0,0,0-4.85-4.91A4.75,4.75,0,0,0,380.17,535Z" transform="translate(-165.44 -237.67)"/><path d="M293.67,538.89c-.09,1,0,1.68,0,2.54-.38,0-1.2,0-1.68,0V521.57h1.77V531c1.89-2.27,4-3.07,6.57-2.55A5.91,5.91,0,0,1,304,531a7,7,0,0,1-1.27,9.41A6.36,6.36,0,0,1,293.67,538.89Zm.09-4a4.71,4.71,0,0,0,4.8,4.9,4.8,4.8,0,1,0-4.8-4.9Z" transform="translate(-165.44 -237.67)"/><path d="M339,536.8c.32.31.6.58.89.84a6.76,6.76,0,0,0,6.06,1.86,3.5,3.5,0,0,0,3-2.69c.24-1.44-.41-2.57-2.12-3.36s-3.61-1.48-5.37-2.32c-2.31-1.1-3.34-3-3-5.07a5.07,5.07,0,0,1,4.61-4,8,8,0,0,1,6.32,1.56c.5.41.75.79.22,1.39s-.83.85-1.56.26a5.5,5.5,0,0,0-5.41-1,2.7,2.7,0,0,0-2.06,2.12,2.42,2.42,0,0,0,1.29,2.74c1.63.82,3.32,1.52,5,2.27.54.25,1.1.49,1.62.78a4.51,4.51,0,0,1,2.67,4.78,4.93,4.93,0,0,1-3.64,4.32,8.79,8.79,0,0,1-8.75-1.72C337.31,538.3,337.34,538.18,339,536.8Z" transform="translate(-165.44 -237.67)"/><path d="M320.77,541.34l-1.74,0c0-.61,0-1.72,0-2.34a6.53,6.53,0,0,1-5.94,2.63,6.05,6.05,0,0,1-4.11-2.21,7.12,7.12,0,0,1,.52-9.48,6.35,6.35,0,0,1,9.47,1.11c.06-.68,0-1.53,0-2.3.67,0,1,0,1.73,0,0,3.59,0,7.69,0,11.28ZM309.37,535a4.71,4.71,0,0,0,4.75,4.82,4.79,4.79,0,0,0,4.81-4.68,4.87,4.87,0,0,0-4.86-4.91A4.76,4.76,0,0,0,309.37,535Z" transform="translate(-165.44 -237.67)"/><path d="M407.37,528.39a6.65,6.65,0,1,1-6.85,6.26A6.62,6.62,0,0,1,407.37,528.39ZM402.46,535a4.75,4.75,0,0,0,4.78,4.9,4.83,4.83,0,0,0,0-9.65A4.72,4.72,0,0,0,402.46,535Z" transform="translate(-165.44 -237.67)"/><path d="M269,530.44h-6.58v-1.73h10.27l-7.79,10.86h7.73v1.77H261.15Z" transform="translate(-165.44 -237.67)"/><path d="M373.26,539.23a5.36,5.36,0,0,1-4.42,2.47,4.75,4.75,0,0,1-5.17-4.8c-.12-2.48-.09-5.73-.07-8.21,1.37,0,.22,0,2,.06v5c0,.84,0,1.68,0,2.52.07,2.28,1.46,3.74,3.52,3.72a3.85,3.85,0,0,0,4.11-3.78c0-2.08,0-4.16,0-6.23v-1.26h1.84v12.67h-1.78A19.22,19.22,0,0,1,373.26,539.23Z" transform="translate(-165.44 -237.67)"/><path d="M234.89,539.14l1.31-1a6.94,6.94,0,0,0,1.87,1.22,7,7,0,0,0,3,.1,1.91,1.91,0,0,0,1.19-1.38,2.34,2.34,0,0,0-1-1.59,8.37,8.37,0,0,0-1.95-.86,24.57,24.57,0,0,1-2.38-1.11,3,3,0,0,1-1.38-3,3.25,3.25,0,0,1,2-2.76c2-.95,4.43-.31,6.23,1.81l-1.16,1c0-.14-1.18-1.15-3.44-1.24a1.49,1.49,0,0,0-1.69,1.36c-.15.93.48,1.4,1.21,1.7,1,.41,2.05.68,3,1.13,1.91.89,2.75,2.24,2.54,3.9s-1.36,2.67-3.34,3.13A5.91,5.91,0,0,1,234.89,539.14Z" transform="translate(-165.44 -237.67)"/><path d="M249.86,528.61h3.06l.07,1.52h-2.91c0,2.72-.09,5.3,0,7.87a2,2,0,0,0,2.1,1.79c.37.06.58.1.91.13,0,.41-.07,1.38,0,1.8-.55,0-.68-.05-1.15-.09a4,4,0,0,1-3.83-3.89c-.13-2-.07-4-.1-6v-1.49c-.7,0-1.19,0-1.95.05v-1.77c.62,0,1.2,0,1.95,0,0-.85,0-3.4,0-4.22l1.84-.11Z" transform="translate(-165.44 -237.67)"/><path d="M220.07,528.66c0,.55.07,1.62.08,1.66a9.81,9.81,0,0,1,3.08-1.84c1.32-.43,2.92.21,4.15,1.09l-.84,1.35a7.4,7.4,0,0,1-.71-.31,3.48,3.48,0,0,0-5.33,2.95c-.12,2.23,0,4.47-.05,6.7,0,.35,0,.71-.07,1.12h-1.87V539.6c0-3.24-.07-7.76,0-11" transform="translate(-165.44 -237.67)"/><path d="M324.81,522.12c.33,0,.6-.07.87-.07s.54.05.89.08v19.24h-1.76Z" transform="translate(-165.44 -237.67)"/><path d="M231.78,541.39H230V528.65l1.82.05Z" transform="translate(-165.44 -237.67)"/><path d="M395.59,541.33V528.68h1.77v12.65Z" transform="translate(-165.44 -237.67)"/><circle cx="65.38" cy="287.2" r="1.17"/><circle cx="92.08" cy="287.11" r="1.17"/><circle cx="230.94" cy="287.17" r="1.17"/><path d="M288,541.29l-1.74,0c0-.61,0-1.72,0-2.34a6.54,6.54,0,0,1-5.94,2.63,6.09,6.09,0,0,1-4.11-2.22,7.11,7.11,0,0,1,.53-9.47,6.35,6.35,0,0,1,9.47,1.1c.06-.67,0-1.53,0-2.29.67,0,1,0,1.73,0,0,3.59,0,7.69.05,11.28Zm-11.41-6.37a4.7,4.7,0,0,0,4.76,4.82,4.78,4.78,0,0,0,4.8-4.67,4.85,4.85,0,0,0-4.85-4.91A4.76,4.76,0,0,0,276.58,534.92Z" transform="translate(-165.44 -237.67)"/><path d="M258.43,541.37h-1.82V528.63l1.82,0Z" transform="translate(-165.44 -237.67)"/><path d="M357.12,528.56h3.07l.07,1.53h-2.91c0,2.72-.1,5.3,0,7.86a2,2,0,0,0,2.1,1.8l.91.13c0,.4-.08,1.37-.05,1.8-.55,0-.68,0-1.15-.1a4,4,0,0,1-3.83-3.88c-.14-2-.08-4-.1-6,0-.47,0-.94,0-1.5-.71,0-1.19,0-1.95.06v-1.77c.61,0,1.19,0,1.95,0v-4.22l1.84-.11Z" transform="translate(-165.44 -237.67)"/></svg>