<svg fill="currentColor" id="Capa_1" data-name="Capa 1" xmlns="http://www.w3.org/2000/svg" viewBox="0 0 390.08 390.68"><title>instagram</title><path d="M172.21,35.78H289l6.79.62c14.67,1.33,29.6,1.35,44,4.24,38,7.64,64.48,29.71,77.84,66.57,6.47,17.83,8,36.46,8,55.21.14,44.78.34,89.57-.13,134.35a235.51,235.51,0,0,1-3.84,42.45c-7.31,37.42-28.7,63.89-64.6,77.87-17.31,6.74-35.56,8.54-53.93,8.72-41.22.42-82.44.8-123.65.58-20.31-.11-40.73-.19-60.7-5-32.35-7.85-56.38-26.18-70.67-56.48-8.79-18.64-11.48-38.69-11.7-59-.44-42.23-.91-84.47-.57-126.7a386.12,386.12,0,0,1,3.8-53.2c4-27.34,17.22-50,39.59-66.83C98.4,44.72,120.59,39,144.07,37.34,153.44,36.67,162.83,36.29,172.21,35.78Zm58.86,356.34,0-.6c10.3,0,20.62.31,30.91-.06,22.1-.8,44.35-.59,66.24-3.27,28.88-3.52,48.65-19.87,57.39-48.26,4-13,4.69-26.54,4.85-40,.4-34.61.89-69.21.59-103.81-.19-20.58-.71-41.27-3.05-61.68C384.4,103,364.51,81.75,333.58,75.59c-13.49-2.68-27.51-3.48-41.31-3.71-34.09-.57-68.19-.47-102.29-.35-19.57.06-39.2-.19-58.59,3.22-29.65,5.2-50,24-56,53.5-2.61,12.73-3.48,26-3.76,39q-1,47.12-.57,94.27c.25,22,.89,44,2.93,65.89,1.91,20.31,11.2,37.39,28.46,49.26,13.32,9.16,28.56,12.67,44.35,13.27C174.86,391,203,391.43,231.07,392.12Z" transform="translate(-35.72 -35.78)"/><path d="M130.52,231.36c-.18-55.28,45-100.47,100.43-100.47A100.31,100.31,0,0,1,331.33,231c.37,55.25-44.66,100.52-100.18,100.72C175.85,331.87,130.71,286.87,130.52,231.36Zm100.23,64.95a65.06,65.06,0,1,0-64.85-65.17A64.86,64.86,0,0,0,230.75,296.31Z" transform="translate(-35.72 -35.78)"/><path d="M335.86,103.54a23.38,23.38,0,0,1-1.05,46.75,23.38,23.38,0,1,1,1.05-46.75Z" transform="translate(-35.72 -35.78)"/></svg>