<svg fill="currentColor" id="Capa_1" data-name="Capa 1" xmlns="http://www.w3.org/2000/svg" viewBox="0 0 384 384"><title>tik-tok</title><path d="M294.75,204H318a20.63,20.63,0,0,0,2.89.61c28.84,2.18,55.95,10.24,80.8,25,51.06,30.37,82.37,74.79,93.36,133.29,1.31,7,2,14.06,2.95,21.09v23.25c-.21,1.2-.47,2.4-.64,3.61-1,7.54-1.7,15.15-3.14,22.61-14.94,77.29-77.49,138.37-155.16,151.59-7,1.18-14,2-21.06,2.94H294a14.75,14.75,0,0,0-2.48-.62,170.86,170.86,0,0,1-47.5-9.81q-104.6-38.76-127-148.14c-1.45-7.05-2.05-14.28-3-21.43V384c1-7,1.74-14.09,2.94-21.07,13.31-77.76,74.29-140.22,151.55-155.15C277.16,206.11,286,205.24,294.75,204Zm-5.37,163.25c-14.24.67-27.73,3.2-39.85,10.65-29.25,18-38.51,54.28-22.09,86.14s54.64,42.6,85.07,23.48c22-13.82,32.43-34.43,33.14-59.95.57-20.48.3-41,.41-61.47v-4.33c7.68,3.46,14.78,7.1,22.2,9.88a48,48,0,0,0,24.24,2.82c0-9.55-.11-18.9.07-28.24.05-3-.83-3.94-3.89-4.34-19.25-2.5-32.88-12.38-39.3-31.1-1.73-5.05-2.8-10.32-4.24-15.73H312.65c-.07,1.54-.19,2.88-.19,4.22.08,41,.32,82,.13,123a75.06,75.06,0,0,1-3.18,20.6c-2.82,9.54-8.84,16.73-19.11,19.25a31.12,31.12,0,0,1-36.13-17.87c-6.95-15.66.92-32.27,18.4-38.42,5.49-1.93,11.19-3.29,16.81-4.91Z" transform="translate(-114 -204)"/></svg>