<svg fill="currentColor" id="Capa_1" data-name="Capa 1" xmlns="http://www.w3.org/2000/svg" viewBox="0 0 409.01 309.27"><title>youtube</title><path d="M101,359.47c.53-8.48,1.11-17,1.58-25.43.8-14.23,2.07-28.34,6.41-42.05,8.86-28,28.19-43.13,57-45.78,18.53-1.71,37.17-2.36,55.77-3.09q92-3.63,183.92.72c15.53.72,31.17,1.22,46.51,3.5,26.52,3.95,45,22.69,51.24,49.25,4.61,19.47,5,39.28,5.7,59.05,1.39,41,1.46,82-2.58,122.8C505,494.1,501,509.39,491.13,522.28c-10.26,13.45-24.07,21.58-40.84,23-22.9,2-45.9,3.06-68.88,4-57.59,2.44-115.19,1.43-172.75-.94-17.5-.72-35.13-1.75-52.37-4.64-26.88-4.51-42.33-21.93-48.93-47.92-4.4-17.31-4.43-35-5.57-52.66-.2-3.16-.52-6.31-.79-9.46Zm213.28-94.64c-37.65.91-66.25,1.4-94.83,2.36-17.41.58-34.84,1.43-52.18,3-16.72,1.5-28.76,9.73-34.49,26.35-4.1,11.87-5.42,24.07-6.12,36.42a1042.28,1042.28,0,0,0,.11,126.84A239.21,239.21,0,0,0,131.42,492c1.42,7,4.35,13.6,9.83,18.79,7.13,6.78,15.87,9.68,25.26,10.59,14,1.36,28.08,2.54,42.16,3.1,64.36,2.57,128.74,3.19,193.1.13,15.41-.73,30.85-1.42,46.15-3.22,14.08-1.66,24-9.46,29.29-23.19,5-13,6.24-26.56,7-40.25a1066.45,1066.45,0,0,0,.68-108.91c-.73-16.3-.61-32.76-5.36-48.64-2.51-8.37-5.76-16.16-13.12-21.75-8.71-6.63-18.76-8.75-29.2-9.18C393.26,267.7,349.26,266.14,314.28,264.83Z" transform="translate(-101 -241.49)"/><path d="M253.48,392.1c0-15.7,0-31.4,0-47.1,0-15.42,12.76-23,26.33-15.6,28.94,15.78,57.8,31.68,86.74,47.45,6.36,3.47,10.37,8.42,10.28,15.79-.08,7.2-4.16,12-10.37,15.35q-43.4,23.24-86.75,46.57c-13.62,7.29-26.19-.3-26.23-15.76S253.48,407.67,253.48,392.1Zm91.44.24L277.7,355.55v72.92Z" transform="translate(-101 -241.49)"/></svg>